<?xml version="1.0" standalone="no"?>
<!DOCTYPE svg PUBLIC "-//W3C//DTD SVG 20010904//EN"
 "http://www.w3.org/TR/2001/REC-SVG-20010904/DTD/svg10.dtd">
<svg version="1.0" xmlns="http://www.w3.org/2000/svg"
 width="512.000000pt" height="512.000000pt" viewBox="0 0 512.000000 512.000000"
 preserveAspectRatio="xMidYMid meet">
<metadata>
Created by potrace 1.14, written by Peter Selinger 2001-2017
</metadata>
<g transform="translate(0.000000,512.000000) scale(0.100000,-0.100000)"
fill="#000000" stroke="none">
<path d="M1060 5113 c0 -3 7 -14 16 -24 20 -22 9 -85 -17 -100 -11 -5 -19 -15
-19 -21 0 -15 -75 -88 -91 -89 -14 0 -84 -83 -124 -144 -10 -16 -24 -55 -31
-85 -10 -51 -10 -57 11 -85 21 -30 48 -88 60 -134 8 -26 46 -94 51 -89 1 2 -3
24 -11 48 -43 142 -47 162 -43 211 4 41 12 57 37 81 17 16 31 33 31 39 0 23
29 3 78 -55 58 -70 61 -84 36 -173 -24 -87 -33 -148 -28 -189 2 -20 -3 -62
-11 -92 -10 -31 -16 -87 -15 -131 0 -42 -2 -92 -5 -111 -12 -67 72 -258 130
-296 15 -10 31 -42 49 -97 15 -45 31 -90 37 -99 12 -23 12 -48 -1 -48 -6 0
-24 10 -40 21 -16 12 -35 19 -44 16 -26 -10 -49 -57 -57 -116 -10 -69 5 -271
26 -366 9 -38 25 -113 36 -165 17 -77 27 -103 56 -138 20 -24 42 -46 50 -49
29 -11 25 9 -9 45 -20 20 -43 51 -52 69 -16 32 -37 156 -35 203 1 14 -6 59
-14 100 -8 41 -18 129 -22 195 -6 98 -4 127 8 158 9 20 23 37 31 37 28 0 66
-44 73 -83 l6 -39 -46 33 c-57 40 -71 32 -29 -15 l30 -35 -18 -38 c-28 -56
-35 -133 -16 -158 15 -19 15 -18 16 16 0 51 28 139 44 139 18 0 28 -68 16
-111 -6 -18 -10 -51 -10 -71 0 -43 -11 -48 -36 -15 l-16 22 6 -27 c9 -41 49
-98 66 -95 11 3 16 -6 17 -32 3 -62 34 -285 43 -306 4 -11 13 -49 19 -85 15
-80 41 -158 93 -274 39 -87 120 -219 152 -245 9 -7 16 -18 16 -23 0 -6 18 -29
40 -51 65 -64 59 -69 -145 -148 -60 -23 -186 -79 -280 -125 -93 -45 -221 -104
-284 -130 -63 -27 -116 -53 -118 -59 -1 -5 1 -16 6 -24 8 -12 18 -11 63 8 63
27 159 72 323 152 134 65 196 91 202 85 10 -10 -182 -125 -267 -159 -60 -24
-119 -55 -212 -109 l-76 -44 40 -80 c155 -303 429 -593 728 -771 313 -187 635
-273 1015 -273 216 0 403 31 618 101 124 41 396 177 483 242 312 233 496 448
648 761 57 115 136 327 136 363 0 7 -12 15 -27 19 -16 3 -66 21 -113 40 -47
19 -95 34 -106 34 -11 0 -44 9 -75 19 -30 11 -72 22 -94 25 -22 3 -80 15 -130
26 -49 12 -144 32 -210 47 -66 14 -133 32 -150 39 -32 14 -223 54 -259 54 -12
0 -27 5 -34 12 -13 13 -6 26 77 153 25 38 53 90 62 115 15 44 20 54 51 130 8
19 18 52 22 72 4 20 22 55 41 78 37 44 55 93 55 150 0 19 9 64 21 100 11 36
24 110 30 165 5 55 13 135 18 178 10 95 -13 227 -41 227 -10 0 -6 27 13 102 5
21 29 66 52 100 23 35 53 88 67 118 13 30 30 62 36 70 23 28 74 197 74 245 0
40 5 51 31 76 17 16 29 35 26 43 -3 7 -1 18 5 24 8 8 4 24 -11 57 -27 58 -21
90 16 80 26 -6 68 23 143 101 9 11 41 39 70 64 71 61 86 77 100 111 7 16 16
29 21 29 5 0 16 11 25 25 17 26 10 52 -9 37 -7 -5 -26 -12 -43 -15 -28 -5 -32
-3 -43 29 -15 41 -10 50 29 59 45 10 80 57 76 102 -4 39 -22 55 -32 29 -3 -9
-15 -16 -25 -16 -10 0 -19 -4 -19 -10 0 -5 7 -10 15 -10 17 0 20 -26 4 -35
-17 -11 -46 23 -52 62 -6 32 3 64 31 116 2 5 -5 4 -15 -2 -11 -6 -23 -7 -27
-4 -3 3 -14 -2 -25 -11 -12 -11 -21 -13 -25 -7 -12 19 7 95 28 113 20 16 -49
17 -1432 18 -966 0 -1451 -3 -1447 -10 3 -5 -3 -10 -15 -10 -11 0 -28 -9 -37
-20 -10 -11 -26 -20 -36 -20 -15 0 -17 3 -9 13 6 6 10 16 10 22 0 5 9 12 19
16 10 4 -19 8 -64 8 -46 1 -83 -2 -83 -6z m3100 -193 c0 -5 -4 -10 -10 -10 -5
0 -10 5 -10 10 0 6 5 10 10 10 6 0 10 -4 10 -10z m-2000 -175 c209 -11 328
-47 438 -131 67 -50 175 -178 347 -408 104 -139 124 -164 125 -148 0 7 -16 44
-36 83 -64 127 -40 121 81 -22 61 -71 134 -160 163 -197 70 -89 108 -99 62
-17 -24 43 -25 52 -5 35 8 -7 15 -9 15 -5 0 19 -52 150 -69 174 -10 14 -37 63
-59 107 -22 45 -52 102 -67 128 -15 26 -25 49 -23 52 12 11 37 -11 67 -61 18
-29 39 -56 46 -59 8 -3 42 4 76 15 52 17 66 18 93 8 51 -20 74 -47 79 -92 2
-23 15 -107 28 -187 35 -213 31 -544 -10 -910 -5 -41 -14 -120 -20 -175 -25
-224 -34 -273 -60 -350 -15 -44 -35 -105 -45 -135 -10 -30 -29 -72 -42 -92
-13 -21 -24 -42 -24 -48 0 -5 -4 -10 -10 -10 -5 0 -10 -10 -11 -22 -1 -44 -54
-159 -80 -172 -13 -7 -23 -19 -21 -27 1 -9 -13 -24 -33 -35 -19 -10 -35 -22
-35 -26 0 -13 -28 -9 -33 4 -2 7 -3 5 -2 -4 4 -22 -20 -42 -40 -35 -8 4 -18 0
-22 -7 -5 -8 -17 -15 -27 -17 -13 -3 -23 -16 -28 -37 -8 -28 -11 -32 -23 -22
-10 9 -15 9 -15 1 0 -6 -13 -17 -30 -26 -18 -9 -30 -23 -30 -35 0 -13 -7 -20
-19 -20 -11 0 -21 -8 -23 -17 -2 -10 -12 -18 -22 -18 -10 0 -24 -8 -30 -19
-19 -32 -66 -75 -72 -65 -8 13 -24 11 -24 -3 0 -22 -72 -79 -92 -72 -10 3 -18
0 -18 -7 0 -8 -5 -7 -17 2 -13 11 -17 11 -20 2 -5 -15 -39 -17 -48 -3 -11 18
-26 10 -20 -10 8 -26 -7 -26 -23 0 -10 17 -15 18 -33 8 -18 -11 -23 -10 -41
12 -18 23 -21 23 -32 7 -15 -19 -26 -13 -26 15 0 10 -5 18 -11 18 -7 0 -9 -10
-7 -25 7 -33 -8 -42 -32 -20 -17 15 -19 15 -29 -2 -9 -14 -12 -15 -20 -4 -6 9
-10 10 -16 2 -8 -14 -47 -4 -58 16 -7 11 -12 11 -23 2 -11 -9 -16 -6 -24 15
-5 14 -12 26 -16 26 -3 0 -4 -7 0 -15 3 -8 1 -15 -4 -15 -6 0 -10 5 -10 12 0
19 -31 47 -46 41 -22 -8 -45 17 -39 41 5 15 4 17 -3 7 -8 -11 -12 -10 -21 7
-6 11 -11 28 -11 37 0 12 -6 14 -26 9 -29 -7 -44 7 -44 44 0 12 -6 22 -13 22
-7 0 -18 9 -24 19 -7 11 -23 21 -35 23 -17 2 -24 11 -26 30 -2 16 -9 28 -15
28 -7 0 -18 9 -25 20 -18 29 -36 25 -28 -5 10 -40 -27 -32 -73 15 -21 22 -43
40 -49 40 -6 0 -14 9 -17 21 -4 11 -20 33 -36 50 -16 16 -29 36 -29 44 0 8 -4
15 -8 15 -17 0 -62 98 -62 133 0 33 -14 55 -34 56 -22 1 -80 250 -116 494 -40
279 -49 817 -15 962 38 162 52 210 101 335 65 169 131 316 158 354 41 56 149
156 182 168 19 7 34 17 34 24 0 6 9 14 19 17 36 9 77 -46 190 -253 11 -21 41
-25 41 -6 0 28 -43 151 -62 175 -32 42 -22 57 18 26 19 -15 38 -24 42 -20 4 4
7 35 7 70 0 53 2 62 15 55 8 -4 71 -11 140 -15z m1215 -345 c14 0 97 -81 90
-88 -8 -8 -116 62 -127 82 -9 16 -7 18 7 13 9 -4 22 -7 30 -7z m120 -110 c3
-5 1 -10 -4 -10 -6 0 -11 5 -11 10 0 6 2 10 4 10 3 0 8 -4 11 -10z m-215 -253
c0 -7 -11 2 -25 18 -32 39 -32 58 0 22 14 -15 25 -33 25 -40z m-2200 -198 c0
-5 -7 -9 -15 -9 -8 0 -15 7 -15 15 0 9 6 12 15 9 8 -4 15 -10 15 -15z m2550
-466 c-1 -18 -70 -104 -70 -87 0 5 10 30 22 57 23 47 48 63 48 30z m-4 -95
c-3 -13 -6 -48 -6 -78 l-1 -55 -14 34 c-18 39 -19 75 -5 102 15 27 34 24 26
-3z m-69 -80 c-3 -8 -6 -5 -6 6 -1 11 2 17 5 13 3 -3 4 -12 1 -19z m26 -93 c3
-27 2 -59 -2 -70 -6 -14 -9 -5 -14 35 -9 76 -9 106 2 95 5 -6 11 -32 14 -60z
m-2356 -117 c-3 -7 -5 -2 -5 12 0 14 2 19 5 13 2 -7 2 -19 0 -25z m2354 -140
c-12 -55 -21 -113 -21 -127 -1 -37 -37 -114 -51 -106 -5 4 -8 14 -5 22 3 8 11
44 16 81 6 37 20 91 30 120 11 29 20 63 20 75 0 12 6 40 12 62 l12 40 4 -33
c2 -18 -6 -78 -17 -134z m-44 120 c-3 -8 -6 -5 -6 6 -1 11 2 17 5 13 3 -3 4
-12 1 -19z m-353 -1060 c-3 -24 -9 -115 -14 -203 -13 -212 -20 -259 -65 -398
-43 -136 -200 -457 -288 -590 -86 -129 -201 -246 -287 -291 -123 -65 -234 -61
-396 14 -110 51 -196 110 -278 194 -142 144 -241 308 -271 452 -17 78 -20 282
-6 346 6 24 15 80 20 126 10 80 54 202 72 202 5 0 9 -4 9 -10 0 -5 4 -10 9
-10 6 0 11 19 13 43 l3 42 48 -60 c141 -175 337 -343 411 -353 87 -11 260 -13
303 -2 27 6 59 14 73 17 14 3 32 11 40 19 8 7 29 16 45 20 17 4 41 15 55 24
14 9 50 33 80 53 67 44 263 225 356 329 38 42 70 77 71 77 2 1 0 -18 -3 -41z
m656 -42 c30 -7 82 -19 115 -27 54 -12 57 -14 30 -19 -16 -4 -40 -3 -52 2 -13
4 -46 10 -75 13 -29 4 -55 10 -58 13 -3 4 -16 13 -30 19 -22 10 -23 12 -5 12
12 1 45 -5 75 -13z m-2170 -26 c0 -5 -9 -19 -20 -30 -23 -23 -40 -26 -40 -7 0
6 12 19 28 29 34 20 32 20 32 8z m2534 -56 c26 -9 45 -19 41 -22 -3 -3 5 -16
17 -30 l23 -24 -35 7 c-61 13 -128 46 -133 66 -7 24 21 25 87 3z m86 -34 c8
-5 11 -10 5 -10 -5 0 -17 5 -25 10 -8 5 -10 10 -5 10 6 0 17 -5 25 -10z
m-2652 -935 c-3 -3 -9 2 -12 12 -6 14 -5 15 5 6 7 -7 10 -15 7 -18z m66 -80
c15 -19 21 -32 13 -30 -12 5 -53 65 -44 65 3 0 17 -16 31 -35z m249 -243 c85
-58 194 -111 267 -131 81 -22 180 -30 220 -18 l25 8 -25 -15 c-14 -8 -60 -17
-102 -21 -65 -6 -95 -3 -190 20 -149 35 -205 65 -300 156 -43 41 -78 73 -78
71 0 -3 -9 7 -20 21 -11 14 -20 29 -20 34 0 4 5 1 10 -7 7 -12 11 -10 18 10 7
19 6 30 -7 45 -9 11 24 -17 72 -63 49 -45 107 -95 130 -110z"/>
<path d="M3130 3922 c0 -17 30 -62 41 -62 15 0 10 13 -16 45 -14 17 -25 24
-25 17z"/>
<path d="M1750 3910 c-160 -19 -300 -86 -367 -177 -29 -38 -44 -83 -27 -83 3
0 45 15 92 32 l87 33 195 -1 c151 0 212 -4 270 -18 143 -34 162 -37 177 -25
22 19 16 67 -12 85 -14 9 -25 23 -25 32 0 13 2 13 18 -1 23 -21 32 -21 32 -3
0 8 -9 18 -20 21 -11 3 -25 15 -30 26 -13 23 -32 26 -23 3 5 -14 3 -15 -15 -5
-12 7 -22 18 -22 26 0 15 -11 24 -37 30 -10 2 -47 10 -83 19 -70 17 -107 18
-210 6z"/>
<path d="M3192 3818 c6 -13 -5 -15 -80 -10 -48 2 -116 -1 -152 -7 -86 -14
-199 -46 -213 -60 -6 -6 -18 -11 -27 -11 -49 0 -116 -60 -108 -97 3 -13 9 -7
21 21 18 41 34 44 21 4 -9 -26 -6 -69 5 -81 5 -5 77 6 162 24 135 28 167 31
256 26 124 -7 262 -40 324 -79 56 -34 59 -34 59 -5 -1 42 -63 140 -110 174
-25 17 -55 40 -66 51 -12 10 -39 29 -60 42 -28 18 -36 20 -32 8z"/>
<path d="M1645 3561 c-44 -11 -107 -46 -129 -70 -11 -12 -14 -21 -9 -21 6 0
16 6 22 14 20 24 110 57 174 63 131 12 275 -30 380 -111 55 -42 69 -43 32 -4
-78 84 -193 129 -340 134 -55 2 -113 0 -130 -5z"/>
<path d="M1719 3470 c-97 -16 -227 -108 -141 -99 18 2 40 -6 63 -24 67 -51
110 -60 244 -51 66 4 147 8 180 9 47 1 61 5 63 18 3 15 -24 36 -137 109 -61
39 -172 55 -272 38z m21 -62 c-4 -43 0 -57 22 -78 30 -28 17 -25 -58 11 -35
16 -64 37 -64 44 0 16 52 43 83 44 13 1 18 -5 17 -21z m319 -49 c13 -11 22
-21 20 -23 -2 -2 -35 -6 -73 -10 -58 -6 -68 -5 -63 8 3 8 9 31 13 50 l6 36 37
-21 c20 -11 47 -29 60 -40z m-239 31 c0 -5 -4 -10 -10 -10 -5 0 -10 5 -10 10
0 6 5 10 10 10 6 0 10 -4 10 -10z"/>
<path d="M2851 3459 c-55 -9 -155 -59 -134 -66 6 -2 31 6 54 18 64 32 215 47
310 29 41 -7 97 -21 124 -32 60 -22 61 -22 45 -3 -6 8 -37 24 -68 36 -66 25
-239 35 -331 18z"/>
<path d="M2827 3386 c-74 -27 -149 -90 -130 -110 3 -3 18 -6 33 -6 15 0 60
-12 101 -27 104 -38 225 -37 304 2 30 14 55 31 55 37 0 6 15 7 40 3 26 -4 40
-3 40 4 0 20 -104 80 -165 96 -73 18 -226 19 -278 1z m29 -70 l-1 -54 -30 5
c-16 4 -47 11 -68 18 -35 10 -37 12 -21 26 9 8 40 24 68 36 28 12 51 22 52 23
0 0 0 -24 0 -54z m279 17 c19 -9 34 -22 32 -27 -5 -14 -55 -43 -89 -51 l-28
-7 15 35 c8 20 12 43 9 51 -8 21 16 21 61 -1z m-105 -12 c0 -27 -19 -36 -37
-18 -18 18 -9 37 18 37 12 0 19 -7 19 -19z"/>
<path d="M2006 2755 c-33 -69 8 -145 86 -160 80 -15 115 -28 148 -56 l35 -30
-33 4 c-19 2 -37 -2 -43 -10 -16 -18 -40 -17 -33 2 8 20 -6 19 -35 -2 -14 -9
-21 -12 -18 -5 8 12 -28 26 -43 17 -8 -5 -7 -11 1 -21 9 -11 7 -14 -10 -14
-14 0 -20 4 -15 11 5 8 -6 10 -37 5 -24 -3 -62 -7 -84 -9 -22 -3 -62 -13 -90
-23 -43 -17 -53 -26 -76 -73 -50 -99 -40 -150 18 -97 15 14 31 26 36 26 4 0
47 -15 96 -34 77 -30 215 -66 376 -98 82 -17 267 -4 375 25 52 15 128 35 169
47 41 11 83 27 93 37 22 20 23 46 3 63 -20 16 -19 29 1 26 9 -1 24 -16 33 -32
9 -16 20 -32 26 -36 13 -10 27 2 21 18 -3 8 -1 14 4 14 15 0 8 59 -9 74 -9 7
-26 17 -38 20 -13 4 -23 14 -23 22 0 23 -18 16 -23 -8 -3 -22 -4 -22 -12 -3
-18 42 -60 50 -53 10 6 -30 -8 -34 -17 -4 -4 13 -12 18 -22 15 -8 -3 -24 1
-36 9 -27 19 -67 21 -49 3 7 -7 12 -16 12 -20 0 -12 -45 -9 -58 4 -7 7 -12 8
-12 4 0 -5 -11 -1 -25 8 -25 17 -26 17 -19 -10 6 -24 5 -26 -12 -19 -10 4 -32
7 -49 6 -39 -1 -57 11 -49 33 8 21 84 66 111 66 39 0 145 38 169 61 29 27 33
93 9 139 -17 32 -43 43 -29 13 14 -33 16 -117 2 -134 -7 -9 -55 -26 -108 -38
-71 -16 -112 -32 -160 -62 -97 -62 -123 -62 -212 -1 -65 45 -126 70 -211 87
-59 12 -79 58 -58 133 13 43 -2 41 -23 -3z m324 -308 c0 -6 -9 -1 -20 11 -11
12 -20 24 -20 28 0 4 9 -1 20 -11 11 -10 20 -23 20 -28z m74 -9 c-3 -4 -16 -8
-30 -8 -17 0 -24 6 -24 19 0 17 3 18 29 8 17 -6 28 -15 25 -19z m81 11 c11
-17 -1 -21 -15 -4 -8 9 -8 15 -2 15 6 0 14 -5 17 -11z m511 -56 c-8 -8 -36 5
-36 17 0 7 6 7 21 0 11 -7 18 -14 15 -17z m-954 -5 c-17 -17 -15 -26 6 -24 9
0 22 10 27 21 6 11 19 21 30 23 15 2 17 1 7 -6 -8 -5 -12 -18 -10 -28 3 -15
11 -18 38 -16 19 2 38 9 42 15 4 7 11 0 17 -16 6 -16 15 -26 20 -23 5 3 31 1
57 -5 60 -12 60 -12 109 -5 22 3 89 8 149 10 66 3 112 10 116 17 6 8 13 8 29
0 17 -10 21 -9 21 4 0 13 3 13 20 3 15 -9 23 -10 28 -2 4 6 25 10 47 9 22 -1
42 2 45 6 8 11 75 -25 75 -41 0 -10 -54 -28 -190 -63 -172 -44 -201 -49 -310
-50 -98 -1 -139 4 -225 25 -58 15 -121 29 -140 33 -50 10 -160 55 -160 66 0
12 30 26 75 35 22 4 49 13 59 20 23 16 35 9 18 -8z"/>
<path d="M2582 2011 c-11 -7 -10 -10 3 -15 19 -7 35 0 35 15 0 11 -20 12 -38
0z"/>
<path d="M2533 2003 c-15 -6 -18 -43 -3 -43 9 0 30 31 30 44 0 7 -10 7 -27 -1z"/>
<path d="M2329 1984 c-8 -10 -15 -12 -23 -4 -5 5 -22 10 -37 10 -23 0 -28 -6
-39 -44 -12 -45 -6 -91 11 -81 5 4 12 -2 16 -12 14 -39 24 -45 52 -27 14 9 32
24 40 33 12 14 12 13 6 -6 -11 -39 12 -25 46 26 17 28 38 52 46 55 10 4 12 13
7 28 -9 31 -11 33 -29 18 -10 -8 -19 -9 -27 -3 -23 18 -57 21 -69 7z"/>
<path d="M2474 1974 c3 -9 6 -22 6 -30 0 -8 5 -14 10 -14 6 0 10 14 10 30 0
21 -5 30 -16 30 -11 0 -14 -5 -10 -16z"/>
<path d="M2181 1936 c-7 -8 -8 -17 -3 -19 4 -3 13 3 20 14 14 22 0 26 -17 5z"/>
<path d="M1179 2918 c22 -35 51 -49 51 -24 0 15 -45 56 -62 56 -6 0 -1 -15 11
-32z"/>
</g>
</svg>
